<svg width="17" height="17" viewBox="0 0 17 17" fill="none" xmlns="http://www.w3.org/2000/svg">
<path d="M9 8C9.104 8 9.205 8.008 9.305 8.023C8.915 8.302 8.562 8.631 8.257 9H2C1.73478 9 1.48043 9.10536 1.29289 9.29289C1.10536 9.48043 1 9.73478 1 10V11.5C1 12.907 2.579 14 5.5 14C6.05971 14.0037 6.61862 13.9572 7.17 13.861C7.253 14.19 7.367 14.506 7.506 14.808C6.84559 14.9399 6.17345 15.0043 5.5 15C2.088 15 0 13.554 0 11.5V10C0 9.46957 0.210714 8.96086 0.585786 8.58579C0.960859 8.21071 1.46957 8 2 8H9Z" fill="black"/>
<path d="M15 4.5C15 5.16304 14.7366 5.79893 14.2678 6.26777C13.7989 6.73661 13.163 7 12.5 7C11.837 7 11.2011 6.73661 10.7322 6.26777C10.2634 5.79893 10 5.16304 10 4.5C10 3.83696 10.2634 3.20107 10.7322 2.73223C11.2011 2.26339 11.837 2 12.5 2C13.163 2 13.7989 2.26339 14.2678 2.73223C14.7366 3.20107 15 3.83696 15 4.5V4.5ZM12.5 3C12.1022 3 11.7206 3.15804 11.4393 3.43934C11.158 3.72064 11 4.10218 11 4.5C11 4.89782 11.158 5.27936 11.4393 5.56066C11.7206 5.84196 12.1022 6 12.5 6C12.8978 6 13.2794 5.84196 13.5607 5.56066C13.842 5.27936 14 4.89782 14 4.5C14 4.10218 13.842 3.72064 13.5607 3.43934C13.2794 3.15804 12.8978 3 12.5 3Z" fill="black"/>
<path d="M5.5 0C5.95963 -6.84897e-09 6.41475 0.0905301 6.83939 0.266422C7.26403 0.442313 7.64987 0.700121 7.97487 1.02513C8.29988 1.35013 8.55769 1.73597 8.73358 2.16061C8.90947 2.58525 9 3.04037 9 3.5C9 3.95963 8.90947 4.41475 8.73358 4.83939C8.55769 5.26403 8.29988 5.64987 7.97487 5.97487C7.64987 6.29988 7.26403 6.55769 6.83939 6.73358C6.41475 6.90947 5.95963 7 5.5 7C4.57174 7 3.6815 6.63125 3.02513 5.97487C2.36875 5.3185 2 4.42826 2 3.5C2 2.57174 2.36875 1.6815 3.02513 1.02513C3.6815 0.368749 4.57174 1.38321e-08 5.5 0V0ZM5.5 1C4.83696 1 4.20107 1.26339 3.73223 1.73223C3.26339 2.20107 3 2.83696 3 3.5C3 4.16304 3.26339 4.79893 3.73223 5.26777C4.20107 5.73661 4.83696 6 5.5 6C6.16304 6 6.79893 5.73661 7.26777 5.26777C7.73661 4.79893 8 4.16304 8 3.5C8 2.83696 7.73661 2.20107 7.26777 1.73223C6.79893 1.26339 6.16304 1 5.5 1Z" fill="black"/>
<path d="M17 12.5C17 13.6935 16.5259 14.8381 15.682 15.682C14.8381 16.5259 13.6935 17 12.5 17C11.3065 17 10.1619 16.5259 9.31802 15.682C8.47411 14.8381 8 13.6935 8 12.5C8 11.3065 8.47411 10.1619 9.31802 9.31802C10.1619 8.47411 11.3065 8 12.5 8C13.6935 8 14.8381 8.47411 15.682 9.31802C16.5259 10.1619 17 11.3065 17 12.5V12.5ZM13 10.5C13 10.3674 12.9473 10.2402 12.8536 10.1464C12.7598 10.0527 12.6326 10 12.5 10C12.3674 10 12.2402 10.0527 12.1464 10.1464C12.0527 10.2402 12 10.3674 12 10.5V12H10.5C10.3674 12 10.2402 12.0527 10.1464 12.1464C10.0527 12.2402 10 12.3674 10 12.5C10 12.6326 10.0527 12.7598 10.1464 12.8536C10.2402 12.9473 10.3674 13 10.5 13H12V14.5C12 14.6326 12.0527 14.7598 12.1464 14.8536C12.2402 14.9473 12.3674 15 12.5 15C12.6326 15 12.7598 14.9473 12.8536 14.8536C12.9473 14.7598 13 14.6326 13 14.5V13H14.5C14.6326 13 14.7598 12.9473 14.8536 12.8536C14.9473 12.7598 15 12.6326 15 12.5C15 12.3674 14.9473 12.2402 14.8536 12.1464C14.7598 12.0527 14.6326 12 14.5 12H13V10.5Z" fill="black"/>
</svg>
