<svg width="12" height="11" viewBox="0 0 12 11" fill="none" xmlns="http://www.w3.org/2000/svg">
<g clip-path="url(#clip0_201_10)">
<path d="M6.496 6C6.89383 6 7.27536 6.15804 7.55666 6.43934C7.83796 6.72064 7.996 7.10218 7.996 7.5L7.995 8.248C8.098 10.085 6.683 11.001 4.06 11.001C1.446 11 0 10.097 0 8.275V7.5C0 7.10218 0.158035 6.72064 0.43934 6.43934C0.720644 6.15804 1.10218 6 1.5 6H6.496ZM10.496 6C10.8938 6 11.2754 6.15804 11.5567 6.43934C11.838 6.72064 11.996 7.10218 11.996 7.5V8.027C12.086 9.674 10.836 10.5 8.552 10.5C8.242 10.5 7.95 10.485 7.678 10.455C7.968 10.187 8.185 9.868 8.323 9.497L8.552 9.5C10.336 9.5 11.049 9.029 10.996 8.054V7.5C10.996 7.36739 10.9433 7.24021 10.8496 7.14645C10.7558 7.05268 10.6286 7 10.496 7H8.433C8.33265 6.61265 8.11842 6.26431 7.818 6H10.496V6ZM6.496 7H1.5C1.36739 7 1.24021 7.05268 1.14645 7.14645C1.05268 7.24021 1 7.36739 1 7.5V8.275C1 9.42 1.928 10 4.06 10C6.184 10 7.06 9.433 6.996 8.275V7.5C6.996 7.36739 6.94332 7.24021 6.84955 7.14645C6.75578 7.05268 6.62861 7 6.496 7V7ZM4 0C4.66304 0 5.29893 0.263392 5.76777 0.732233C6.23661 1.20107 6.5 1.83696 6.5 2.5C6.5 3.16304 6.23661 3.79893 5.76777 4.26777C5.29893 4.73661 4.66304 5 4 5C3.33696 5 2.70107 4.73661 2.23223 4.26777C1.76339 3.79893 1.5 3.16304 1.5 2.5C1.5 1.83696 1.76339 1.20107 2.23223 0.732233C2.70107 0.263392 3.33696 0 4 0V0ZM9 1C9.53043 1 10.0391 1.21071 10.4142 1.58579C10.7893 1.96086 11 2.46957 11 3C11 3.53043 10.7893 4.03914 10.4142 4.41421C10.0391 4.78929 9.53043 5 9 5C8.46957 5 7.96086 4.78929 7.58579 4.41421C7.21071 4.03914 7 3.53043 7 3C7 2.46957 7.21071 1.96086 7.58579 1.58579C7.96086 1.21071 8.46957 1 9 1ZM4 1C3.60218 1 3.22064 1.15804 2.93934 1.43934C2.65804 1.72064 2.5 2.10218 2.5 2.5C2.5 2.89782 2.65804 3.27936 2.93934 3.56066C3.22064 3.84196 3.60218 4 4 4C4.39782 4 4.77936 3.84196 5.06066 3.56066C5.34196 3.27936 5.5 2.89782 5.5 2.5C5.5 2.10218 5.34196 1.72064 5.06066 1.43934C4.77936 1.15804 4.39782 1 4 1ZM9 2C8.73478 2 8.48043 2.10536 8.29289 2.29289C8.10536 2.48043 8 2.73478 8 3C8 3.26522 8.10536 3.51957 8.29289 3.70711C8.48043 3.89464 8.73478 4 9 4C9.26522 4 9.51957 3.89464 9.70711 3.70711C9.89464 3.51957 10 3.26522 10 3C10 2.73478 9.89464 2.48043 9.70711 2.29289C9.51957 2.10536 9.26522 2 9 2V2Z" fill="black"/>
</g>
<defs>
<clipPath id="clip0_201_10">
<rect width="12" height="11" fill="white"/>
</clipPath>
</defs>
</svg>
